<svg width="309" height="81" viewBox="0 0 309 81" fill="none" xmlns="http://www.w3.org/2000/svg">
<path d="M40.5841 0C18.206 0 0 18.1681 0 40.4998C0 62.8315 18.206 81 40.5841 81C62.9623 81 81.1682 62.8319 81.1682 40.4998C81.1682 18.1677 62.9627 0 40.5841 0ZM40.5841 79.7197C18.9133 79.7197 1.28295 62.1256 1.28295 40.4998C1.28295 18.874 18.9133 1.28029 40.5841 1.28029C62.2549 1.28029 79.8853 18.874 79.8853 40.4998C79.8853 62.1256 62.2549 79.7197 40.5841 79.7197ZM70.3363 36.0785H47.3684V38.1204H70.3736C70.6014 38.1204 70.8098 38.0767 70.999 37.9881C71.189 37.8999 71.2834 37.7043 71.2834 37.4017V36.9856C71.2834 36.3808 70.9673 36.0781 70.3359 36.0781L70.3363 36.0785ZM77.0193 33.3175C76.71 32.6369 76.2931 32.0489 75.7782 31.5671C75.6544 31.452 75.5259 31.3438 75.3929 31.2408C71.2894 15.8958 57.2428 4.55837 40.5906 4.55837C23.9383 4.55837 9.9475 15.8509 5.81305 31.1498C5.65319 31.2684 5.49814 31.3939 5.35153 31.531C4.83055 32.0168 4.41602 32.6136 4.11999 33.3035C3.82436 33.9909 3.67453 34.7718 3.67453 35.6244V45.4201C3.67453 46.2727 3.82476 47.0536 4.11999 47.7406C4.41803 48.4341 4.83296 49.0309 5.35032 49.5123C5.50175 49.6538 5.66242 49.7825 5.82791 49.9047C9.98084 65.176 23.9909 76.4416 40.5906 76.4416C60.0349 76.4416 75.9268 60.9852 76.5831 41.738C76.7442 41.4919 76.8932 41.2333 77.0197 40.9548C77.3338 40.2605 77.4933 39.472 77.4933 38.6122V35.6248C77.4933 34.7902 77.3338 34.0146 77.0189 33.3179L77.0193 33.3175ZM7.57279 49.4101C7.06708 49.2213 6.61881 48.9439 6.22718 48.578C5.83515 48.2132 5.52585 47.7646 5.29891 47.2359C5.07116 46.7064 4.95748 46.1004 4.95748 45.4201V35.6244C4.95748 34.9429 5.07116 34.3381 5.29891 33.8086C5.52585 33.279 5.83515 32.8321 6.22718 32.4665C6.61841 32.101 7.06708 31.8236 7.57279 31.6344C8.0777 31.4444 8.59586 31.3506 9.12648 31.3506H38.6894V36.0785H10.7187C10.3897 36.0785 10.1624 36.1855 10.0363 36.3996C9.90934 36.6136 9.84708 36.8974 9.84708 37.2502V43.7939C9.84708 44.1467 9.9226 44.4305 10.074 44.6445C10.2255 44.8585 10.4155 44.9656 10.6424 44.9656H38.6894V49.6935H9.12648C8.59586 49.6935 8.0777 49.5985 7.57279 49.4097V49.4101ZM40.591 72.1739C26.7404 72.1739 14.964 63.3197 10.6304 50.9742H39.9728V43.6857H11.1304V37.3588H39.9728V30.0703H10.6143C14.9355 17.702 26.7235 8.82612 40.591 8.82612C54.4584 8.82612 66.2464 17.7016 70.5672 30.0699H41.1963V50.9742H48.6518V44.1659H72.004C72.0426 44.1659 72.0803 44.1615 72.1185 44.1607C70.2997 59.9286 56.8793 72.1735 40.591 72.1735V72.1739ZM76.2108 38.6118C76.2108 39.2933 76.0903 39.8981 75.8509 40.4276C75.6103 40.9572 75.2945 41.4049 74.9033 41.7697C74.5109 42.1352 74.063 42.4126 73.5581 42.6018C73.052 42.7918 72.5346 42.8856 72.004 42.8856H47.3688V49.6939H42.4792V31.3502H72.004C72.5346 31.3502 73.0524 31.4508 73.5581 31.6528C74.063 31.8549 74.5113 32.1387 74.9033 32.5034C75.2945 32.869 75.6103 33.3167 75.8509 33.8466C76.0907 34.3761 76.2108 34.969 76.2108 35.6244V38.6118Z" fill="url(#paint0_linear_112_169)"/>
<path d="M157.04 26.4102C156.697 26.2331 156.516 25.726 156.497 24.889V24.8321L156.439 23.1783C156.401 22.2403 156.253 21.5496 155.996 21.1059C155.739 20.6622 155.306 20.3327 154.696 20.1174C155.369 19.9082 155.885 19.5186 156.244 18.9482C156.603 18.3778 156.782 17.6647 156.782 16.8093C156.782 15.4657 156.414 14.4676 155.678 13.815C154.941 13.1624 153.808 12.8357 152.277 12.8357H145.476V26.8383H148.362V21.3913H151.42C152.188 21.3913 152.72 21.5432 153.015 21.8475C153.31 22.1517 153.474 22.7377 153.506 23.6064L153.544 25.0798C153.556 25.4791 153.59 25.823 153.644 26.1112C153.698 26.3998 153.775 26.6419 153.877 26.8383H157.04V26.4106V26.4102ZM153.377 18.5105C153.031 18.8083 152.489 18.9574 151.753 18.9574H148.361V15.25H151.886C152.553 15.25 153.055 15.4067 153.391 15.7206C153.727 16.0345 153.896 16.4954 153.896 17.1039C153.896 17.744 153.723 18.213 153.377 18.5109L153.377 18.5105ZM146.099 63.3999V63.2744L145.974 59.6356C145.89 57.5724 145.565 56.0525 145 55.0764C144.434 54.1008 143.48 53.3752 142.139 52.9014C143.62 52.4413 144.755 51.5839 145.544 50.3292C146.334 49.0742 146.729 47.5057 146.729 45.6238C146.729 42.668 145.918 40.4721 144.298 39.0359C142.676 37.6001 140.183 36.8818 136.816 36.8818H121.853V67.6877H128.203V55.7041H134.93C136.62 55.7041 137.79 56.0388 138.44 56.7082C139.09 57.3772 139.449 58.6671 139.519 60.5771L139.603 63.8187C139.631 64.6974 139.704 65.4538 139.823 66.0879C139.941 66.7224 140.113 67.256 140.337 67.6877H147.294V66.7465C146.54 66.3565 146.142 65.2405 146.1 63.4003L146.099 63.3999ZM139.236 49.3668C138.475 50.0222 137.284 50.3497 135.663 50.3497H128.202V42.1934H135.956C137.423 42.1934 138.527 42.5385 139.267 43.2283C140.008 43.9186 140.378 44.9327 140.378 46.2715C140.378 47.6797 139.997 48.7114 139.236 49.3668H139.236ZM103.733 36.8814H90.0059V67.6873H96.356V56.7287H104.152C107.184 56.7287 109.517 55.8681 111.152 54.1456C112.786 52.424 113.604 49.9733 113.604 46.7946C113.604 43.6159 112.769 41.0818 111.099 39.4019C109.43 37.722 106.974 36.8818 103.733 36.8818L103.733 36.8814ZM106.163 50.0883C105.409 50.7922 104.2 51.1446 102.538 51.1446H96.3973V42.2355H102.873C104.34 42.2355 105.443 42.6118 106.184 43.3646C106.924 44.1174 107.295 45.2257 107.295 46.69C107.295 48.2517 106.918 49.3845 106.163 50.0887V50.0883ZM132.419 20.6305H138.211V26.8383H141.116V12.8357H138.211V18.0547H132.419V12.8357H129.513V26.8383H132.419V20.6305ZM125.745 22.0278H122.916C122.75 22.8644 122.388 23.5061 121.83 23.9527C121.271 24.3996 120.553 24.6229 119.677 24.6229C118.464 24.6229 117.529 24.208 116.872 23.3779C116.214 22.5477 115.886 21.3721 115.886 19.8509C115.886 18.3297 116.216 17.0847 116.876 16.2669C117.537 15.4492 118.502 15.0408 119.772 15.0408C120.668 15.0408 121.379 15.2484 121.906 15.6633C122.433 16.0786 122.757 16.6822 122.878 17.4743H125.726C125.624 15.8837 125.054 14.6524 124.016 13.7809C122.978 12.9095 121.563 12.4738 119.772 12.4738C117.568 12.4738 115.879 13.1075 114.705 14.375C113.53 15.6428 112.942 17.4679 112.942 19.8505C112.942 22.2331 113.519 23.9952 114.671 25.2883C115.824 26.581 117.438 27.2276 119.515 27.2276C121.318 27.2276 122.781 26.7586 123.902 25.8206C125.023 24.8826 125.637 23.6184 125.745 22.0278H125.745ZM163.847 12.8353H160.96V26.8379H163.847V12.8353ZM161.977 54.0727H176.749V48.8024H161.977V42.2355H178.134V36.8814H155.711V67.6873H178.89V61.9989H161.977V54.0727ZM201.683 27.228C203.486 27.228 204.948 26.759 206.069 25.821C207.19 24.883 207.805 23.6188 207.913 22.0282H205.083C204.918 22.8648 204.556 23.5065 203.997 23.9531C203.439 24.4 202.721 24.6233 201.844 24.6233C200.631 24.6233 199.697 24.2084 199.039 23.3783C198.382 22.5481 198.053 21.3725 198.053 19.8513C198.053 18.3301 198.384 17.0851 199.044 16.2673C199.704 15.4496 200.67 15.0412 201.94 15.0412C202.835 15.0412 203.546 15.2488 204.073 15.6637C204.601 16.079 204.925 16.6826 205.045 17.4747H207.894C207.792 15.8841 207.222 14.6528 206.184 13.7813C205.146 12.9099 203.731 12.4742 201.94 12.4742C199.736 12.4742 198.047 13.1079 196.873 14.3754C195.698 15.6432 195.11 17.4683 195.11 19.8509C195.11 22.2335 195.687 23.9956 196.839 25.2887C197.992 26.5814 199.606 27.228 201.683 27.228H201.683ZM266.777 23.9527C266.218 24.3996 265.501 24.6229 264.624 24.6229C263.412 24.6229 262.477 24.208 261.819 23.3779C261.162 22.5477 260.833 21.3721 260.833 19.8509C260.833 18.3297 261.164 17.0847 261.824 16.2669C262.484 15.4492 263.45 15.0408 264.72 15.0408C265.615 15.0408 266.326 15.2484 266.853 15.6633C267.381 16.0786 267.704 16.6822 267.825 17.4743H270.674C270.572 15.8837 270.002 14.6524 268.964 13.7809C267.926 12.9095 266.511 12.4738 264.72 12.4738C262.516 12.4738 260.827 13.1075 259.652 14.375C258.478 15.6428 257.89 17.4679 257.89 19.8505C257.89 22.2331 258.467 23.9952 259.619 25.2883C260.772 26.581 262.386 27.2276 264.463 27.2276C266.266 27.2276 267.729 26.7586 268.85 25.8206C269.971 24.8826 270.585 23.6184 270.693 22.0278H267.864C267.699 22.8644 267.337 23.5061 266.778 23.9527H266.777ZM245.977 21.3909H249.035C249.803 21.3909 250.335 21.5428 250.63 21.8471C250.925 22.1513 251.089 22.7373 251.121 23.606L251.159 25.0794C251.171 25.4787 251.205 25.8226 251.259 26.1108C251.313 26.3994 251.391 26.6415 251.492 26.8379H254.655V26.4102C254.312 26.2331 254.131 25.726 254.112 24.889V24.8321L254.054 23.1783C254.017 22.2403 253.869 21.5496 253.612 21.1059C253.355 20.6622 252.921 20.3327 252.311 20.1174C252.985 19.9082 253.5 19.5186 253.859 18.9482C254.218 18.3778 254.398 17.6647 254.398 16.8093C254.398 15.4657 254.029 14.4676 253.293 13.815C252.556 13.1624 251.423 12.8357 249.892 12.8357H243.091V26.8383H245.977V21.3913L245.977 21.3909ZM245.977 15.25H249.501C250.168 15.25 250.669 15.4067 251.006 15.7206C251.343 16.0345 251.511 16.4954 251.511 17.1039C251.511 17.744 251.338 18.213 250.992 18.5109C250.646 18.8087 250.104 18.9578 249.368 18.9578H245.976V15.2504L245.977 15.25ZM262.19 56.1218C262.19 58.52 261.711 60.2629 260.755 61.3504C259.797 62.4379 258.272 62.9814 256.176 62.9814C254.08 62.9814 252.599 62.4342 251.649 61.3399C250.699 60.2453 250.224 58.506 250.224 56.1218V36.7976H243.811V56.812C243.811 60.6048 244.876 63.5081 247.007 65.5227C249.137 67.5374 252.208 68.5447 256.218 68.5447C260.228 68.5447 263.249 67.5341 265.366 65.5123C267.482 63.4909 268.541 60.5908 268.541 56.812V36.7976H262.191V56.1218H262.19ZM283.158 26.8379H286.063V12.8353H283.158V18.0543H277.366V12.8353H274.461V26.8379H277.366V20.6301H283.158V26.8379ZM299.569 36.8814L293.513 60.3254L287.372 36.8814H277.983V67.6873H283.935V42.8419L290.285 67.6873H296.782L303.048 42.8419V67.6873H309V36.8814H299.569ZM188.588 26.8379V15.3354H192.722V12.8353H181.539V15.3354H185.702V26.8379H188.588H188.588ZM235.911 21.5813C235.911 22.6712 235.694 23.4637 235.259 23.9579C234.823 24.4521 234.13 24.6994 233.177 24.6994C232.224 24.6994 231.551 24.4509 231.12 23.9531C230.688 23.4556 230.472 22.6652 230.472 21.5813V12.7977H227.557V21.8952C227.557 23.6192 228.041 24.9387 229.009 25.8543C229.977 26.7702 231.373 27.228 233.196 27.228C235.018 27.228 236.392 26.7686 237.354 25.8495C238.316 24.9307 238.797 23.6124 238.797 21.8948V12.7973H235.911V21.5809L235.911 21.5813ZM177.37 19.4993C177.053 19.3218 176.679 19.1606 176.251 19.0147C175.822 18.8688 175.097 18.6664 174.075 18.4062C173.833 18.3493 173.497 18.27 173.065 18.1685C171.471 17.8014 170.674 17.2466 170.674 16.505C170.674 15.9599 170.879 15.5402 171.288 15.2456C171.698 14.951 172.281 14.8035 173.036 14.8035C173.906 14.8035 174.576 14.981 175.046 15.3358C175.516 15.6909 175.777 16.2072 175.827 16.8854H178.599C178.549 15.4785 178.061 14.3886 177.137 13.6154C176.213 12.8422 174.932 12.4557 173.293 12.4557C171.54 12.4557 170.2 12.8185 169.273 13.544C168.346 14.27 167.883 15.3137 167.883 16.6762C167.883 17.4053 168.013 18.0371 168.274 18.5726C168.534 19.1081 168.912 19.5346 169.407 19.8509C169.966 20.206 170.9 20.5259 172.208 20.8113C172.341 20.843 172.44 20.8654 172.503 20.8778L172.589 20.8967C175.034 21.4546 176.257 22.1581 176.257 23.0071C176.257 23.5903 176.044 24.0304 175.618 24.3283C175.192 24.6265 174.561 24.7752 173.722 24.7752C172.738 24.7752 171.985 24.59 171.465 24.2192C170.944 23.8485 170.629 23.2797 170.522 22.5129H167.674C167.75 24.0212 168.289 25.1841 169.293 26.0018C170.296 26.8191 171.681 27.228 173.446 27.228C175.212 27.228 176.624 26.8271 177.609 26.0254C178.593 25.2237 179.086 24.0942 179.086 22.6363C179.086 21.9076 178.943 21.2819 178.657 20.7588C178.371 20.2357 177.942 19.816 177.371 19.4993H177.37ZM202.479 60.3258L196.338 36.8818H186.95V67.6877H192.901V42.8423L199.251 67.6877H205.748L212.014 42.8423V67.6877H217.966V36.8818H208.536L202.479 60.3258H202.479ZM220.378 18.0543H214.586V12.8353H211.681V26.8379H214.586V20.6301H220.378V26.8379H223.284V12.8353H220.378V18.0543ZM227.808 67.6873H234.158V36.8814H227.808V67.6873Z" fill="url(#paint1_linear_112_169)"/>
<defs>
<linearGradient id="paint0_linear_112_169" x1="40.5841" y1="81" x2="40.5841" y2="0" gradientUnits="userSpaceOnUse">
<stop stop-color="#DCD8D4"/>
<stop offset="0.06" stop-color="#CDC9C6"/>
<stop offset="0.18" stop-color="#A7A2A4"/>
<stop offset="0.26" stop-color="#8A858B"/>
<stop offset="0.52" stop-color="#F1F2F2"/>
<stop offset="0.59" stop-color="#E2E3E3"/>
<stop offset="0.71" stop-color="#BDBCBE"/>
<stop offset="0.87" stop-color="#827D82"/>
<stop offset="0.88" stop-color="#807B80"/>
<stop offset="1" stop-color="#A7A7AA"/>
</linearGradient>
<linearGradient id="paint1_linear_112_169" x1="199.503" y1="68.5447" x2="199.503" y2="12.4553" gradientUnits="userSpaceOnUse">
<stop stop-color="#DCD8D4"/>
<stop offset="0.06" stop-color="#CDC9C6"/>
<stop offset="0.18" stop-color="#A7A2A4"/>
<stop offset="0.26" stop-color="#8A858B"/>
<stop offset="0.52" stop-color="#F1F2F2"/>
<stop offset="0.59" stop-color="#E2E3E3"/>
<stop offset="0.71" stop-color="#BDBCBE"/>
<stop offset="0.87" stop-color="#827D82"/>
<stop offset="0.88" stop-color="#807B80"/>
<stop offset="1" stop-color="#A7A7AA"/>
</linearGradient>
</defs>
</svg>
